<svg width="52" height="52" viewBox="0 0 52 52" fill="none" xmlns="http://www.w3.org/2000/svg">
<path d="M2.09543 18.2329L26 0.865247L49.9046 18.2329L40.7738 46.3344H11.2262L2.09543 18.2329Z" stroke="#1565D8" stroke-width="1.4"/>
<path fill-rule="evenodd" clip-rule="evenodd" d="M19.3333 22.6667C18.873 22.6667 18.4999 23.0398 18.4999 23.5V31.8333C18.4999 32.2936 18.873 32.6667 19.3333 32.6667H32.6666C33.1268 32.6667 33.4999 32.2936 33.4999 31.8333V23.5C33.4999 23.0398 33.1268 22.6667 32.6666 22.6667H19.3333ZM16.8333 23.5C16.8333 22.1193 17.9525 21 19.3333 21H32.6666C34.0473 21 35.1666 22.1193 35.1666 23.5V31.8333C35.1666 33.214 34.0473 34.3333 32.6666 34.3333H19.3333C17.9525 34.3333 16.8333 33.214 16.8333 31.8333V23.5Z" fill="#1565D8"/>
<path fill-rule="evenodd" clip-rule="evenodd" d="M22.5655 18.3989C23.0343 17.9301 23.6702 17.6667 24.3333 17.6667H27.6666C28.3296 17.6667 28.9655 17.9301 29.4344 18.3989C29.9032 18.8677 30.1666 19.5036 30.1666 20.1667V33.5C30.1666 33.9602 29.7935 34.3333 29.3333 34.3333C28.873 34.3333 28.4999 33.9602 28.4999 33.5V20.1667C28.4999 19.9457 28.4121 19.7337 28.2558 19.5774C28.0996 19.4211 27.8876 19.3333 27.6666 19.3333H24.3333C24.1122 19.3333 23.9003 19.4211 23.744 19.5774C23.5877 19.7337 23.4999 19.9457 23.4999 20.1667V33.5C23.4999 33.9602 23.1268 34.3333 22.6666 34.3333C22.2063 34.3333 21.8333 33.9602 21.8333 33.5V20.1667C21.8333 19.5036 22.0966 18.8677 22.5655 18.3989Z" fill="#1565D8"/>
</svg>
