<svg width="150" height="32" viewBox="0 0 150 32" fill="none" xmlns="http://www.w3.org/2000/svg">
<path fill-rule="evenodd" clip-rule="evenodd" d="M10.506 28.7517C7.86923 29.9003 4.98068 30.2576 2.18354 29.8175C0.395723 29.5362 -0.435764 27.5944 0.226389 25.9101C0.888543 24.2257 2.81925 23.4695 4.6289 23.4451C5.74072 23.4302 6.84936 23.1958 7.88853 22.7431C9.94214 21.8485 11.5563 20.1747 12.3758 18.09C13.1954 16.0053 13.1532 13.6805 12.2586 11.6268C11.8059 10.5877 11.1537 9.66103 10.3497 8.89293C9.04112 7.64275 8.14234 5.77412 8.80449 4.08979C9.46665 2.40545 11.3979 1.54975 12.8986 2.56125C14.1094 3.37728 15.1935 4.36514 16.1172 5.49215C16.3489 5.77496 16.7889 5.77497 17.0207 5.49216C19.1554 2.88728 22.1047 1.0766 25.3936 0.351648C28.6825 -0.373304 32.1197 0.0296555 35.1517 1.49565C38.1838 2.96165 40.6342 5.40537 42.1086 8.43336C42.9639 10.1899 43.4618 12.0838 43.5894 14.007C43.7432 16.3251 41.4393 17.788 39.1692 17.2942C36.8991 16.8004 35.5817 14.4045 34.625 12.2875C34.5991 12.2301 34.5723 12.173 34.5447 12.1163C33.8972 10.7866 32.8211 9.71347 31.4897 9.0697C30.1582 8.42593 28.6488 8.24897 27.2045 8.56733C25.7602 8.88568 24.4651 9.68081 23.5277 10.8247C22.5902 11.9686 22.065 13.3947 22.0366 14.8734C22.0082 16.352 22.4783 17.7973 23.3711 18.9763C24.2639 20.1554 25.5275 20.9997 26.9585 21.3733C27.0195 21.3892 27.0807 21.4043 27.1421 21.4184C29.4058 21.9405 32.0138 22.7616 32.9439 24.8904C33.8741 27.0193 32.8923 29.5657 30.5892 29.8703C28.6784 30.123 26.7236 30.0068 24.8333 29.5133C21.5746 28.6626 18.6971 26.7399 16.664 24.055C16.6164 23.9921 16.5215 23.9921 16.4738 24.055C14.9338 26.0887 12.8861 27.7148 10.506 28.7517Z" fill="white"/>
<path d="M66.112 17.008C67.2 17.008 68.0747 17.344 68.736 18.016C69.408 18.6773 69.744 19.6053 69.744 20.8V26H67.504V21.104C67.504 20.4107 67.328 19.8827 66.976 19.52C66.624 19.1467 66.144 18.96 65.536 18.96C64.928 18.96 64.4427 19.1467 64.08 19.52C63.728 19.8827 63.552 20.4107 63.552 21.104V26H61.312V21.104C61.312 20.4107 61.136 19.8827 60.784 19.52C60.432 19.1467 59.952 18.96 59.344 18.96C58.7253 18.96 58.2347 19.1467 57.872 19.52C57.52 19.8827 57.344 20.4107 57.344 21.104V26H55.104V17.136H57.344V18.208C57.632 17.8347 58 17.5413 58.448 17.328C58.9067 17.1147 59.408 17.008 59.952 17.008C60.6453 17.008 61.264 17.1573 61.808 17.456C62.352 17.744 62.7733 18.16 63.072 18.704C63.36 18.192 63.776 17.7813 64.32 17.472C64.8747 17.1627 65.472 17.008 66.112 17.008ZM71.2936 21.536C71.2936 20.64 71.4696 19.8453 71.8216 19.152C72.1843 18.4587 72.6696 17.9253 73.2776 17.552C73.8963 17.1787 74.5843 16.992 75.3416 16.992C76.003 16.992 76.579 17.1253 77.0696 17.392C77.571 17.6587 77.971 17.9947 78.2696 18.4V17.136H80.5256V26H78.2696V24.704C77.9816 25.12 77.5816 25.4667 77.0696 25.744C76.5683 26.0107 75.987 26.144 75.3256 26.144C74.579 26.144 73.8963 25.952 73.2776 25.568C72.6696 25.184 72.1843 24.6453 71.8216 23.952C71.4696 23.248 71.2936 22.4427 71.2936 21.536ZM78.2696 21.568C78.2696 21.024 78.163 20.56 77.9496 20.176C77.7363 19.7813 77.4483 19.4827 77.0856 19.28C76.723 19.0667 76.3336 18.96 75.9176 18.96C75.5016 18.96 75.1176 19.0613 74.7656 19.264C74.4136 19.4667 74.1256 19.7653 73.9016 20.16C73.6883 20.544 73.5816 21.0027 73.5816 21.536C73.5816 22.0693 73.6883 22.5387 73.9016 22.944C74.1256 23.3387 74.4136 23.6427 74.7656 23.856C75.1283 24.0693 75.5123 24.176 75.9176 24.176C76.3336 24.176 76.723 24.0747 77.0856 23.872C77.4483 23.6587 77.7363 23.36 77.9496 22.976C78.163 22.5813 78.2696 22.112 78.2696 21.568ZM86.1854 16.992C86.8467 16.992 87.428 17.1253 87.9294 17.392C88.4307 17.648 88.8254 17.984 89.1134 18.4V17.136H91.3694V26.064C91.3694 26.8853 91.204 27.616 90.8734 28.256C90.5427 28.9067 90.0467 29.4187 89.3854 29.792C88.724 30.176 87.924 30.368 86.9854 30.368C85.7267 30.368 84.692 30.0747 83.8814 29.488C83.0814 28.9013 82.628 28.1013 82.5214 27.088H84.7454C84.8627 27.4933 85.1134 27.8133 85.4974 28.048C85.892 28.2933 86.3667 28.416 86.9214 28.416C87.572 28.416 88.1 28.2187 88.5054 27.824C88.9107 27.44 89.1134 26.8533 89.1134 26.064V24.688C88.8254 25.104 88.4254 25.4507 87.9134 25.728C87.412 26.0053 86.836 26.144 86.1854 26.144C85.4387 26.144 84.756 25.952 84.1374 25.568C83.5187 25.184 83.028 24.6453 82.6654 23.952C82.3134 23.248 82.1374 22.4427 82.1374 21.536C82.1374 20.64 82.3134 19.8453 82.6654 19.152C83.028 18.4587 83.5134 17.9253 84.1214 17.552C84.74 17.1787 85.428 16.992 86.1854 16.992ZM89.1134 21.568C89.1134 21.024 89.0067 20.56 88.7934 20.176C88.58 19.7813 88.292 19.4827 87.9294 19.28C87.5667 19.0667 87.1774 18.96 86.7614 18.96C86.3454 18.96 85.9614 19.0613 85.6094 19.264C85.2574 19.4667 84.9694 19.7653 84.7454 20.16C84.532 20.544 84.4254 21.0027 84.4254 21.536C84.4254 22.0693 84.532 22.5387 84.7454 22.944C84.9694 23.3387 85.2574 23.6427 85.6094 23.856C85.972 24.0693 86.356 24.176 86.7614 24.176C87.1774 24.176 87.5667 24.0747 87.9294 23.872C88.292 23.6587 88.58 23.36 88.7934 22.976C89.0067 22.5813 89.1134 22.112 89.1134 21.568ZM94.6931 16.08C94.2985 16.08 93.9678 15.9573 93.7011 15.712C93.4451 15.456 93.3171 15.1413 93.3171 14.768C93.3171 14.3947 93.4451 14.0853 93.7011 13.84C93.9678 13.584 94.2985 13.456 94.6931 13.456C95.0878 13.456 95.4131 13.584 95.6691 13.84C95.9358 14.0853 96.0691 14.3947 96.0691 14.768C96.0691 15.1413 95.9358 15.456 95.6691 15.712C95.4131 15.9573 95.0878 16.08 94.6931 16.08ZM95.7971 17.136V26H93.5571V17.136H95.7971ZM97.4342 21.568C97.4342 20.6507 97.6209 19.8507 97.9943 19.168C98.3676 18.4747 98.8849 17.9413 99.5463 17.568C100.208 17.184 100.965 16.992 101.818 16.992C102.917 16.992 103.824 17.2693 104.538 17.824C105.264 18.368 105.749 19.136 105.994 20.128H103.578C103.45 19.744 103.232 19.4453 102.922 19.232C102.624 19.008 102.25 18.896 101.802 18.896C101.162 18.896 100.656 19.1307 100.282 19.6C99.9089 20.0587 99.7223 20.7147 99.7223 21.568C99.7223 22.4107 99.9089 23.0667 100.282 23.536C100.656 23.9947 101.162 24.224 101.802 24.224C102.709 24.224 103.301 23.8187 103.578 23.008H105.994C105.749 23.968 105.264 24.7307 104.538 25.296C103.813 25.8613 102.906 26.144 101.818 26.144C100.965 26.144 100.208 25.9573 99.5463 25.584C98.8849 25.2 98.3676 24.6667 97.9943 23.984C97.6209 23.2907 97.4342 22.4853 97.4342 21.568ZM107.059 21.536C107.059 20.64 107.235 19.8453 107.587 19.152C107.95 18.4587 108.435 17.9253 109.043 17.552C109.662 17.1787 110.35 16.992 111.107 16.992C111.769 16.992 112.345 17.1253 112.835 17.392C113.337 17.6587 113.737 17.9947 114.035 18.4V17.136H116.291V26H114.035V24.704C113.747 25.12 113.347 25.4667 112.835 25.744C112.334 26.0107 111.753 26.144 111.091 26.144C110.345 26.144 109.662 25.952 109.043 25.568C108.435 25.184 107.95 24.6453 107.587 23.952C107.235 23.248 107.059 22.4427 107.059 21.536ZM114.035 21.568C114.035 21.024 113.929 20.56 113.715 20.176C113.502 19.7813 113.214 19.4827 112.851 19.28C112.489 19.0667 112.099 18.96 111.683 18.96C111.267 18.96 110.883 19.0613 110.531 19.264C110.179 19.4667 109.891 19.7653 109.667 20.16C109.454 20.544 109.347 21.0027 109.347 21.536C109.347 22.0693 109.454 22.5387 109.667 22.944C109.891 23.3387 110.179 23.6427 110.531 23.856C110.894 24.0693 111.278 24.176 111.683 24.176C112.099 24.176 112.489 24.0747 112.851 23.872C113.214 23.6587 113.502 23.36 113.715 22.976C113.929 22.5813 114.035 22.112 114.035 21.568ZM120.719 14.16V26H118.479V14.16H120.719ZM126.169 21.536C126.169 20.64 126.345 19.8453 126.697 19.152C127.059 18.4587 127.545 17.9253 128.153 17.552C128.771 17.1787 129.459 16.992 130.217 16.992C130.878 16.992 131.454 17.1253 131.945 17.392C132.446 17.6587 132.846 17.9947 133.145 18.4V17.136H135.401V26H133.145V24.704C132.857 25.12 132.457 25.4667 131.945 25.744C131.443 26.0107 130.862 26.144 130.201 26.144C129.454 26.144 128.771 25.952 128.153 25.568C127.545 25.184 127.059 24.6453 126.697 23.952C126.345 23.248 126.169 22.4427 126.169 21.536ZM133.145 21.568C133.145 21.024 133.038 20.56 132.825 20.176C132.611 19.7813 132.323 19.4827 131.961 19.28C131.598 19.0667 131.209 18.96 130.793 18.96C130.377 18.96 129.993 19.0613 129.641 19.264C129.289 19.4667 129.001 19.7653 128.777 20.16C128.563 20.544 128.457 21.0027 128.457 21.536C128.457 22.0693 128.563 22.5387 128.777 22.944C129.001 23.3387 129.289 23.6427 129.641 23.856C130.003 24.0693 130.387 24.176 130.793 24.176C131.209 24.176 131.598 24.0747 131.961 23.872C132.323 23.6587 132.611 23.36 132.825 22.976C133.038 22.5813 133.145 22.112 133.145 21.568ZM139.828 18.512C140.116 18.0427 140.49 17.6747 140.948 17.408C141.418 17.1413 141.951 17.008 142.548 17.008V19.36H141.956C141.252 19.36 140.719 19.5253 140.356 19.856C140.004 20.1867 139.828 20.7627 139.828 21.584V26H137.588V17.136H139.828V18.512ZM146.665 18.976V23.264C146.665 23.5627 146.734 23.7813 146.873 23.92C147.022 24.048 147.268 24.112 147.609 24.112H148.649V26H147.241C145.353 26 144.409 25.0827 144.409 23.248V18.976H143.353V17.136H144.409V14.944H146.665V17.136H148.649V18.976H146.665Z" fill="white"/>
</svg>
