<svg width="52" height="52" viewBox="0 0 52 52" fill="none" xmlns="http://www.w3.org/2000/svg">
<path d="M1.86032 18.1565L26 0.618033L50.1397 18.1565L40.9191 46.5344H11.0809L1.86032 18.1565Z" fill="white" stroke="#1565D8"/>
<path fill-rule="evenodd" clip-rule="evenodd" d="M19.7204 28.8871C20.5018 28.1057 21.5616 27.6667 22.6667 27.6667H29.3333C30.4384 27.6667 31.4982 28.1057 32.2796 28.8871C33.061 29.6685 33.5 30.7283 33.5 31.8333V33.5C33.5 33.9602 33.1269 34.3333 32.6667 34.3333C32.2064 34.3333 31.8333 33.9602 31.8333 33.5V31.8333C31.8333 31.1703 31.5699 30.5344 31.1011 30.0656C30.6323 29.5967 29.9964 29.3333 29.3333 29.3333H22.6667C22.0036 29.3333 21.3677 29.5967 20.8989 30.0656C20.4301 30.5344 20.1667 31.1703 20.1667 31.8333V33.5C20.1667 33.9602 19.7936 34.3333 19.3333 34.3333C18.8731 34.3333 18.5 33.9602 18.5 33.5V31.8333C18.5 30.7283 18.939 29.6685 19.7204 28.8871Z" fill="#1565D8"/>
<path fill-rule="evenodd" clip-rule="evenodd" d="M25.9999 19.3333C24.6192 19.3333 23.4999 20.4526 23.4999 21.8333C23.4999 23.214 24.6192 24.3333 25.9999 24.3333C27.3806 24.3333 28.4999 23.214 28.4999 21.8333C28.4999 20.4526 27.3806 19.3333 25.9999 19.3333ZM21.8333 21.8333C21.8333 19.5321 23.6987 17.6667 25.9999 17.6667C28.3011 17.6667 30.1666 19.5321 30.1666 21.8333C30.1666 24.1345 28.3011 26 25.9999 26C23.6987 26 21.8333 24.1345 21.8333 21.8333Z" fill="#1565D8"/>
</svg>
