<svg width="52" height="52" viewBox="0 0 52 52" fill="none" xmlns="http://www.w3.org/2000/svg">
<path d="M2.09543 18.2329L26 0.865247L49.9046 18.2329L40.7738 46.3344H11.2262L2.09543 18.2329Z" stroke="#1565D8" stroke-width="1.4"/>
<path d="M35 25C35 32 26 38 26 38C26 38 17 32 17 25C17 22.6131 17.9482 20.3239 19.636 18.636C21.3239 16.9482 23.6131 16 26 16C28.3869 16 30.6761 16.9482 32.364 18.636C34.0518 20.3239 35 22.6131 35 25Z" stroke="#1565D8" stroke-width="2" stroke-linecap="round" stroke-linejoin="round"/>
<path d="M26 28C27.6569 28 29 26.6569 29 25C29 23.3431 27.6569 22 26 22C24.3431 22 23 23.3431 23 25C23 26.6569 24.3431 28 26 28Z" stroke="#1565D8" stroke-width="2" stroke-linecap="round" stroke-linejoin="round"/>
</svg>
